<?xml version="1.0" encoding="UTF-8" standalone="no"?>
<!-- Created with Inkscape (http://www.inkscape.org/) -->

<svg
   xmlns:dc="http://purl.org/dc/elements/1.1/"
   xmlns:cc="http://creativecommons.org/ns#"
   xmlns:rdf="http://www.w3.org/1999/02/22-rdf-syntax-ns#"
   xmlns:svg="http://www.w3.org/2000/svg"
   xmlns="http://www.w3.org/2000/svg"
   xmlns:sodipodi="http://sodipodi.sourceforge.net/DTD/sodipodi-0.dtd"
   xmlns:inkscape="http://www.inkscape.org/namespaces/inkscape"
   width="144"
   height="144"
   viewBox="0 0 38.099999 38.100001"
   version="1.1"
   id="svg8"
   inkscape:version="0.92.4 (5da689c313, 2019-01-14)"
   sodipodi:docname="FUIOS-Copper Blangonga Icon.svg">
  <defs
     id="defs2" />
  <sodipodi:namedview
     id="base"
     pagecolor="#ffffff"
     bordercolor="#666666"
     borderopacity="1.0"
     inkscape:pageopacity="0.0"
     inkscape:pageshadow="2"
     inkscape:zoom="2.4665548"
     inkscape:cx="23.546052"
     inkscape:cy="73.077133"
     inkscape:document-units="px"
     inkscape:current-layer="layer2"
     showgrid="false"
     units="px"
     inkscape:window-width="1304"
     inkscape:window-height="745"
     inkscape:window-x="-8"
     inkscape:window-y="-8"
     inkscape:window-maximized="1"
     inkscape:snap-smooth-nodes="true"
     showguides="true"
     inkscape:guide-bbox="true">
    <inkscape:grid
       type="xygrid"
       id="grid865" />
  </sodipodi:namedview>
  <metadata
     id="metadata5">
    <rdf:RDF>
      <cc:Work
         rdf:about="">
        <dc:format>image/svg+xml</dc:format>
        <dc:type
           rdf:resource="http://purl.org/dc/dcmitype/StillImage" />
        <dc:title />
      </cc:Work>
    </rdf:RDF>
  </metadata>
  <g
     inkscape:groupmode="layer"
     id="layer2"
     inkscape:label="Layer 2">
    <path
       style="fill:#6d7368;fill-opacity:1;stroke:none;stroke-width:0.26458332px;stroke-linecap:butt;stroke-linejoin:miter;stroke-opacity:1"
       d="m 2.3812502,20.769792 h 5.0270832 v -2.38125 l -5.0270832,1.852083 z"
       id="path1065"
       inkscape:connector-curvature="0" />
    <path
       style="fill:#6d7368;fill-opacity:1;stroke:none;stroke-width:0.26458332px;stroke-linecap:butt;stroke-linejoin:miter;stroke-opacity:1"
       d="m 20.108333,35.586458 c 0,0 1.852083,-0.264583 2.116667,-2.910416 1.058333,2.116667 0.264583,4.233333 -2.116667,4.233333 l -0.529166,-0.529166 z"
       id="path1017"
       inkscape:connector-curvature="0" />
    <path
       style="fill:#6d7368;fill-opacity:1;stroke:none;stroke-width:0.26458332px;stroke-linecap:butt;stroke-linejoin:miter;stroke-opacity:1"
       d="m 18.520833,34.263542 c 0,0 1.852083,-0.79375 1.322917,-4.233334 2.38125,1.058334 1.322917,4.762501 -0.264583,5.027084 h -1.058334 z"
       id="path1015"
       inkscape:connector-curvature="0"
       sodipodi:nodetypes="ccccc" />
    <path
       style="fill:#6d7368;fill-opacity:1;stroke:none;stroke-width:0.26458332px;stroke-linecap:butt;stroke-linejoin:miter;stroke-opacity:1"
       d="m 16.139583,32.411458 c 0,0 1.5875,-0.793749 0.79375,-2.645833 2.38125,0.79375 1.322917,4.233334 -0.79375,4.233334 l -0.529166,-0.79375 z"
       id="path1013"
       inkscape:connector-curvature="0"
       sodipodi:nodetypes="ccc" />
    <path
       style="fill:#e7bf42;fill-opacity:1;stroke:none;stroke-width:0.26458332px;stroke-linecap:butt;stroke-linejoin:miter;stroke-opacity:1"
       d="m 8.9958334,29.501042 v 2.645833 h 0.79375 V 12.038542 c 0,0 0,-1.058333 -1.0583333,-1.058333 -1.0583333,0 -1.0583333,1.852083 -1.0583333,1.852083 v 14.022916 z"
       id="path1007"
       inkscape:connector-curvature="0" />
    <path
       style="fill:#9f4225;fill-opacity:1;stroke:none;stroke-width:0.26458332px;stroke-linecap:butt;stroke-linejoin:miter;stroke-opacity:1"
       d="m 5.2916668,25.796875 3.7041666,3.704167 V 12.567709 c 0,0 0,-0.79375 -0.79375,-0.79375 -0.79375,0 -0.79375,1.322916 -0.79375,1.322916 v 12.435417 z"
       id="path1005"
       inkscape:connector-curvature="0" />
    <path
       style="fill:#a39c82;fill-opacity:1;stroke:none;stroke-width:0.26458332px;stroke-linecap:butt;stroke-linejoin:miter;stroke-opacity:1"
       d="M 28.045833,12.303125 H 30.1625 v -0.529166 c 0,0 0,-0.529167 0.529166,-0.529167 0.529167,0 2.645834,0 2.645834,0 0,0 0.79375,0 0.79375,0.79375 0,0.79375 0,8.466666 0,8.466666 l 3.439583,3.439584 v 1.852083 h -7.14375 c 0,0 -1.058333,0 -1.058333,-1.058333 0,-1.058334 0,-8.995834 0,-8.995834 h 1.852083 v 1.322917 c 0,0 0,0.264583 -0.264583,0.264583 -0.264584,0 -0.79375,0 -0.79375,0 v 1.322917 h 1.852083 c 0,0 0.529167,0 0.529167,-0.529167 0,-0.529166 0,-3.175 0,-3.175 0,0 0,-0.79375 -0.79375,-0.79375 -0.79375,0 -2.910417,0 -2.910417,0 0,0 -0.79375,0 -0.79375,0.79375 0,0.79375 0,3.439584 0,3.439584 h -3.96875 v -2.116667 -2.38125 z"
       id="path965"
       inkscape:connector-curvature="0" />
    <path
       style="fill:#ea9fa0;fill-opacity:1;stroke:none;stroke-width:0.26458332px;stroke-linecap:butt;stroke-linejoin:miter;stroke-opacity:1"
       d="m 0.52916683,12.567709 v 0.79375 H 7.1437501 V 25.003125 H 2.3812502 v 1.058333 h 5.5562499 c 0,0 0.5291667,0 0.5291667,-0.529166 0,-0.529167 0,-12.435417 0,-12.435417 0,0 0,-0.529166 -0.5291667,-0.529166 L 7.6729169,12.303125 H 0.79375017 Z"
       id="path959"
       inkscape:connector-curvature="0" />
    <path
       style="fill:#9f4225;fill-opacity:1;stroke:none;stroke-width:0.26458332px;stroke-linecap:butt;stroke-linejoin:miter;stroke-opacity:1"
       d="M 5.8208335,7.0114584 V 6.4822917 c 0,-0.2645833 0.5291666,-0.79375 1.0583333,-0.79375 h 3.9687502 c 0.529166,0 2.116666,-4.2333333 4.497916,-4.2333333 0,0 2.645834,10e-8 3.96875,10e-8 1.322917,0 4.7625,3.175 4.7625,6.35 0,0 0,2.3812505 0,2.9104165 0,0.529167 0.79375,1.5875 1.852084,1.5875 1.058333,0 2.116666,0 2.116666,0 l -3.96875,3.96875 h -1.322916 v 8.73125 c 0,0 0,1.058334 -1.058334,1.058334 -1.058333,0 -4.233333,0 -4.233333,0 0,0 -1.058333,0 -1.058333,-1.058334 0,-1.058333 0,-6.35 0,-6.35 l 5.291666,-5.291666 V 9.3927085 c 0,0 0,-0.5291667 -0.529166,-0.5291667 -0.529167,0 -4.233334,0 -4.233334,0 0,0 -0.529166,0 -0.529166,0.5291667 0,0.5291666 0,3.4395835 0,3.4395835 0,0 0,0.529167 0.529166,0.529167 0.529167,0 1.322917,0 1.322917,0 0,0 0.529167,0 0.529167,-0.529167 0,-0.529167 0,-0.529167 0,-0.529167 0,0 0,-0.264583 -0.264584,-0.264583 -0.264583,0 -0.529166,0 -0.529166,0 0,0 -0.264584,0 -0.264584,-0.264583 0,-0.264584 0,-1.058334 0,-1.058334 0,0 0,-0.529166 0.529167,-0.529166 0.529167,0 1.5875,0 1.5875,0 0,0 0.529167,0 0.529167,0.529166 0,0.529167 0,1.852084 0,1.852084 l -5.291667,5.291666 v 14.816667 h 0.264583 l 0.79375,-0.264583 v 1.5875 L 15.875,34.263542 v 0.264583 h 1.5875 l 1.058333,-0.264583 1.058334,0.79375 v 0.529167 h 0.529166 v 1.322916 c 0,0 -7.14375,0 -7.672916,0 -0.529167,0 -1.5875,-0.79375 -1.5875,-1.5875 0,-0.79375 0,-23.01875 0,-23.547916 0,-0.529167 -0.529167,-1.058334 -1.0583335,-1.058334 L 9.2604169,9.9218751 5.8208335,8.8635418 Z"
       id="path943"
       inkscape:connector-curvature="0"
       sodipodi:nodetypes="csssc" />
    <path
       style="fill:#000000;stroke:none;stroke-width:0.26458332px;stroke-linecap:butt;stroke-linejoin:miter;stroke-opacity:1"
       d="m 5.2916668,8.8635417 1e-7,1.3229173 L 6.6145834,9.921875 8.7312502,8.8635417 H 7.1437501 L 6.3500001,8.334375 Z"
       id="path947"
       inkscape:connector-curvature="0"
       sodipodi:nodetypes="ccccccc" />
    <path
       style="opacity:1;fill:#000000;fill-opacity:0.66666667;stroke:none;stroke-width:0.52916664;stroke-linecap:round;stroke-linejoin:round;stroke-miterlimit:4;stroke-dasharray:none;stroke-dashoffset:0;stroke-opacity:1;paint-order:normal"
       d="m 4.7625001,8.598958 h 0.7937494 c 2e-7,0 3e-7,1e-7 3e-7,3e-7 v 1.5875007 c 0,0 -10e-8,0 -3e-7,0 H 4.7625001 c -2e-7,0 -3e-7,0 -3e-7,0 V 8.5989583 c 0,-2e-7 1e-7,-3e-7 3e-7,-3e-7 z"
       id="rect1067" />
    <path
       style="fill:#6d7368;fill-opacity:1;stroke:none;stroke-width:0.26458332px;stroke-linecap:butt;stroke-linejoin:miter;stroke-opacity:1"
       d="m 2.9104168,7.0114584 h 3.4395833 c 0,0 0.79375,0.5291666 0.79375,1.8520833 l -4.2333332,10e-8 z"
       id="path945"
       inkscape:connector-curvature="0" />
    <path
       style="fill:#6d7368;fill-opacity:1;stroke:none;stroke-width:0.26458332px;stroke-linecap:butt;stroke-linejoin:miter;stroke-opacity:1"
       d="m 9.7895834,10.715625 1e-7,-1.3229165 1.0583335,-0.2645835 h 2.645833 l -1.5875,1.5875 z"
       id="path953"
       inkscape:connector-curvature="0"
       sodipodi:nodetypes="cccccc" />
    <path
       style="fill:#618a9e;fill-opacity:1;stroke:none;stroke-width:0.26458332px;stroke-linecap:butt;stroke-linejoin:miter;stroke-opacity:1"
       d="m 10.847917,9.128125 c 0,0 3.174999,-3.4395833 5.556249,-6.8791666 -3.439583,2.9104167 -8.7312491,6.8791667 -10.0541658,7.6729167 0,0 -2.1166667,0.5291669 -3.4395833,0.5291669 -1.3229167,0 -2.38125006,0.79375 -2.38125006,1.322917 0,0.529166 0,0.79375 0,0.79375 H 7.9375002 l 1.0583333,-1.852084 h 0.79375 z"
       id="path955"
       inkscape:connector-curvature="0" />
    <path
       style="fill:#5f1a0f;fill-opacity:0.99215686;stroke:none;stroke-width:0.26458332px;stroke-linecap:butt;stroke-linejoin:miter;stroke-opacity:1"
       d="M 4.7625001,9.921875 H 2.9104168 v 2.116667 h 1.3229167 v -1.058333 h 1.0583333 v 1.058333 H 6.3500001 V 9.921875 Z"
       id="path949"
       inkscape:connector-curvature="0" />
    <path
       style="fill:#6d7368;fill-opacity:1;stroke:none;stroke-width:0.26458332px;stroke-linecap:butt;stroke-linejoin:miter;stroke-opacity:1"
       d="m 5.8208335,3.0427084 c 0,0 0,-0.2645833 0.2645833,-0.2645833 0.2645833,0 4.4979162,0 4.4979162,0 0,0 0.264584,0 0.264584,0.2645833 0,0.2645834 0,1.5875 0,1.5875 0,0 0,0.2645833 -0.264584,0.2645833 -0.264583,0 -4.4979162,0 -4.4979162,0 0,0 -0.2645833,0 -0.2645833,-0.2645833 0,-0.2645833 0,-1.5875 0,-1.5875 z"
       id="path957"
       inkscape:connector-curvature="0" />
    <path
       style="fill:#efefd8;fill-opacity:1;stroke:none;stroke-width:0.26458332px;stroke-linecap:butt;stroke-linejoin:miter;stroke-opacity:1"
       d="m 2.6458335,14.419792 v 14.2875 c 0,0 -2.11666667,-3.175 -2.11666667,-6.879167 0,-3.704167 0,-7.408333 0,-7.408333 z"
       id="path963"
       inkscape:connector-curvature="0" />
    <path
       style="fill:#776b8f;fill-opacity:1;stroke:none;stroke-width:0.26458332px;stroke-linecap:butt;stroke-linejoin:miter;stroke-opacity:1"
       d="m 28.310416,19.976042 c 0,0 0,2.645833 0,3.439583 0,0.79375 -0.79375,2.645833 -2.116666,2.645833 -1.322917,0 -2.38125,-1.5875 -2.38125,-2.910416 0,-1.322917 0,-3.175 0,-3.175 z"
       id="path967"
       inkscape:connector-curvature="0" />
    <path
       style="fill:#776b8f;fill-opacity:1;stroke:none;stroke-width:0.26458332px;stroke-linecap:butt;stroke-linejoin:miter;stroke-opacity:1"
       d="m 29.104166,25.796875 v 1.322917 H 26.9875 c 0,-0.529167 0.793749,-1.322917 2.116666,-1.322917 z"
       id="path969"
       inkscape:connector-curvature="0" />
    <path
       style="fill:#6d7368;fill-opacity:1;stroke:none;stroke-width:0.26458332px;stroke-linecap:butt;stroke-linejoin:miter;stroke-opacity:1"
       d="m 37.570833,27.648958 v 7.672917 c 0,0 0,0.264583 -0.264583,0.264583 -0.264584,0 -2.910417,0 -3.704167,0 -0.79375,0 -3.96875,-1.058333 -3.96875,-1.5875 0,-0.529166 0.264583,-1.5875 1.5875,-1.5875 1.322917,0 3.439583,0 3.96875,0 0.529167,0 0.79375,-0.529166 0.79375,-1.322916 0,-0.79375 0,-3.439584 0,-3.439584 z"
       id="path971"
       inkscape:connector-curvature="0" />
    <path
       style="fill:#e7bf42;fill-opacity:1;stroke:none;stroke-width:0.26458332px;stroke-linecap:butt;stroke-linejoin:miter;stroke-opacity:1"
       d="m 26.458333,35.586458 1.852083,-1.852083 h -1.852083 z"
       id="path973"
       inkscape:connector-curvature="0" />
    <path
       style="fill:#e7bf42;fill-opacity:1;stroke:none;stroke-width:0.26458332px;stroke-linecap:butt;stroke-linejoin:miter;stroke-opacity:1"
       d="M 28.310417,37.438542 30.1625,35.586459 h -1.852083 z"
       id="path973-0"
       inkscape:connector-curvature="0" />
    <path
       style="fill:#e7bf42;fill-opacity:1;stroke:none;stroke-width:0.26458332px;stroke-linecap:butt;stroke-linejoin:miter;stroke-opacity:1"
       d="m 31.220833,37.703125 1.852083,-1.852083 h -1.852083 z"
       id="path973-0-1"
       inkscape:connector-curvature="0" />
    <path
       style="opacity:1;fill:#e7bf42;fill-opacity:1;stroke:none;stroke-width:0.52916664;stroke-linecap:round;stroke-linejoin:round;stroke-miterlimit:4;stroke-dasharray:none;stroke-dashoffset:0;stroke-opacity:1;paint-order:normal"
       d="M 17.991667,20.240625 H 19.05 v 4.497917 h -1.058333 z"
       id="rect1009" />
    <path
       style="opacity:1;fill:#e7bf42;fill-opacity:1;stroke:none;stroke-width:0.52916664;stroke-linecap:round;stroke-linejoin:round;stroke-miterlimit:4;stroke-dasharray:none;stroke-dashoffset:0;stroke-opacity:1;paint-order:normal"
       d="m 20.372917,20.240625 h 1.322917 v 4.497917 h -1.322917 z"
       id="rect1011" />
    <path
       style="opacity:1;fill:#6d7368;fill-opacity:1;stroke:none;stroke-width:0.52916664;stroke-linecap:round;stroke-linejoin:round;stroke-miterlimit:4;stroke-dasharray:none;stroke-dashoffset:0;stroke-opacity:1;paint-order:normal"
       d="m 35.454166,11.509375 h 2.116667 v 8.202083 h -2.116667 z"
       id="rect1021" />
    <path
       style="fill:#6d7368;fill-opacity:1;stroke:none;stroke-width:0.26458332px;stroke-linecap:butt;stroke-linejoin:miter;stroke-opacity:1"
       d="M 37.570833,10.186459 H 35.454166 V 5.9531251 h -6.614583 c 0,0 1.058333,-1.8520833 2.38125,-1.8520833 1.322917,0 6.35,0 6.35,0 z"
       id="path1023"
       inkscape:connector-curvature="0" />
    <path
       style="fill:#9f4225;fill-opacity:1;stroke:none;stroke-width:0.26458332px;stroke-linecap:butt;stroke-linejoin:miter;stroke-opacity:1"
       d="m 29.36875,3.8364584 c 0,0 -0.79375,0.5291667 -1.5875,2.1166667 h -1.058333 c 0,0 -1.058334,0 -1.058334,-1.0583333 V 2.7781251 c 0,-0.79375 1.322917,-2.38124994 3.439584,-2.38124994 0.264583,0 0.264583,0.26458334 0.264583,0.26458334 z"
       id="path1025"
       inkscape:connector-curvature="0"
       sodipodi:nodetypes="cccssccc" />
    <path
       style="opacity:1;fill:#e7bf42;fill-opacity:1;stroke:none;stroke-width:0.52916664;stroke-linecap:round;stroke-linejoin:round;stroke-miterlimit:4;stroke-dasharray:none;stroke-dashoffset:0;stroke-opacity:1;paint-order:normal"
       d="m 4.4979167,14.419791 h 1.3229166 v 1.852084 H 4.4979167 Z"
       id="rect1027" />
    <path
       style="opacity:1;fill:#e7bf42;fill-opacity:1;stroke:none;stroke-width:0.52916664;stroke-linecap:round;stroke-linejoin:round;stroke-miterlimit:4;stroke-dasharray:none;stroke-dashoffset:0;stroke-opacity:1;paint-order:normal"
       d="m 2.6458337,14.419791 h 1.3229167 v 1.852084 H 2.6458337 Z"
       id="rect1027-0" />
    <path
       style="opacity:1;fill:#e7bf42;fill-opacity:1;stroke:none;stroke-width:0.52916664;stroke-linecap:round;stroke-linejoin:round;stroke-miterlimit:4;stroke-dasharray:none;stroke-dashoffset:0;stroke-opacity:1;paint-order:normal"
       d="m 4.7624998,22.621876 h 1.3229168 v 1.322916 H 4.7624998 Z"
       id="rect1027-5" />
    <path
       style="opacity:1;fill:#e7bf42;fill-opacity:1;stroke:none;stroke-width:0.52916664;stroke-linecap:round;stroke-linejoin:round;stroke-miterlimit:4;stroke-dasharray:none;stroke-dashoffset:0;stroke-opacity:1;paint-order:normal"
       d="m 2.6458335,22.621876 h 1.3229167 v 1.322916 H 2.6458335 Z"
       id="rect1027-5-4" />
  </g>
</svg>
