<?xml version="1.0" encoding="UTF-8" standalone="no"?>
<!-- Created with Inkscape (http://www.inkscape.org/) -->

<svg
   xmlns:dc="http://purl.org/dc/elements/1.1/"
   xmlns:cc="http://creativecommons.org/ns#"
   xmlns:rdf="http://www.w3.org/1999/02/22-rdf-syntax-ns#"
   xmlns:svg="http://www.w3.org/2000/svg"
   xmlns="http://www.w3.org/2000/svg"
   xmlns:sodipodi="http://sodipodi.sourceforge.net/DTD/sodipodi-0.dtd"
   xmlns:inkscape="http://www.inkscape.org/namespaces/inkscape"
   width="144"
   height="144"
   viewBox="0 0 38.099999 38.100001"
   version="1.1"
   id="svg8"
   inkscape:version="0.92.4 (5da689c313, 2019-01-14)"
   sodipodi:docname="FUIOS-Terra Shogun Ceanataur Icon.svg">
  <defs
     id="defs2" />
  <sodipodi:namedview
     id="base"
     pagecolor="#ffffff"
     bordercolor="#666666"
     borderopacity="1.0"
     inkscape:pageopacity="0.0"
     inkscape:pageshadow="2"
     inkscape:zoom="1.4"
     inkscape:cx="-28.634787"
     inkscape:cy="-1.3634099"
     inkscape:document-units="px"
     inkscape:current-layer="layer2"
     showgrid="false"
     units="px"
     inkscape:window-width="1304"
     inkscape:window-height="745"
     inkscape:window-x="-8"
     inkscape:window-y="-8"
     inkscape:window-maximized="1"
     inkscape:snap-smooth-nodes="true"
     showguides="false"
     inkscape:guide-bbox="true">
    <inkscape:grid
       type="xygrid"
       id="grid865" />
  </sodipodi:namedview>
  <metadata
     id="metadata5">
    <rdf:RDF>
      <cc:Work
         rdf:about="">
        <dc:format>image/svg+xml</dc:format>
        <dc:type
           rdf:resource="http://purl.org/dc/dcmitype/StillImage" />
        <dc:title />
      </cc:Work>
    </rdf:RDF>
  </metadata>
  <g
     inkscape:groupmode="layer"
     id="layer2"
     inkscape:label="Layer 2">
    <path
       style="fill:#898473;fill-opacity:1;stroke:none;stroke-width:0.26458332px;stroke-linecap:butt;stroke-linejoin:miter;stroke-opacity:1"
       d="m 29.841073,6.4822916 0.143142,2.5342122 4.460193,3.0401252 1.687237,0.401009 0.910021,-0.683679 c -0.906163,-1.8947095 -2.327,-3.6866104 -4.132564,-5.2916674 z"
       id="path1942"
       inkscape:connector-curvature="0" />
    <path
       style="fill:#b52601;fill-opacity:1;stroke:none;stroke-width:0.26458332px;stroke-linecap:butt;stroke-linejoin:miter;stroke-opacity:1"
       d="m 29.633333,23.944792 3.439584,-3.439584 v -1.5875 l -1.058334,0.529167 -2.38125,2.38125 z"
       id="path2062-3"
       inkscape:connector-curvature="0" />
    <path
       style="fill:#b52601;fill-opacity:1;stroke:none;stroke-width:0.26458332px;stroke-linecap:butt;stroke-linejoin:miter;stroke-opacity:1"
       d="m 25.135417,19.976042 4.497916,-6.085417 h 4.233334 l -8.73125,8.73125 -0.264584,-1.322917 z"
       id="path2032-9"
       inkscape:connector-curvature="0" />
    <path
       style="fill:#898473;fill-opacity:1;stroke:none;stroke-width:0.26458332px;stroke-linecap:butt;stroke-linejoin:miter;stroke-opacity:1"
       d="m 25.135417,27.648958 c 0,2.116667 -0.264584,4.233334 -1.058333,4.233334 l -1e-6,2.116667 h 1.058334 L 30.1625,28.971875 c 0,0 -2.116667,-1.322916 -3.175,-1.322916 -1.058333,0 -1.852083,-1e-6 -1.852083,-1e-6 z"
       id="path2036-5"
       inkscape:connector-curvature="0" />
    <path
       style="fill:#635e58;fill-opacity:1;stroke:none;stroke-width:0.26458332px;stroke-linecap:butt;stroke-linejoin:miter;stroke-opacity:1"
       d="m 25.135417,26.590625 v -1.5875 l 2.645833,-2.38125 c 1.058333,0 2.38125,2.645834 2.38125,3.96875 z"
       id="path2040-7"
       inkscape:connector-curvature="0" />
    <path
       style="fill:#460c00;fill-opacity:1;stroke:none;stroke-width:0.26458332px;stroke-linecap:butt;stroke-linejoin:miter;stroke-opacity:1"
       d="m 29.633333,22.357292 3.439584,-3.439584 h -1.058334 l -2.910416,2.910417 z"
       id="path2060-3"
       inkscape:connector-curvature="0" />
    <path
       style="fill:#b52601;fill-opacity:1;stroke:none;stroke-width:0.26458332px;stroke-linecap:butt;stroke-linejoin:miter;stroke-opacity:1"
       d="m 34.660417,18.917708 v 2.116667 h 2.38125 c 0,-1.058333 -0.529167,-2.116666 -1.322917,-2.116666 -0.79375,0 -1.058333,-10e-7 -1.058333,-10e-7 z"
       id="path2064-1"
       inkscape:connector-curvature="0" />
    <path
       style="fill:#460c00;fill-opacity:1;stroke:none;stroke-width:0.26458332px;stroke-linecap:butt;stroke-linejoin:miter;stroke-opacity:1"
       d="m 34.660417,22.357292 c 0,0 0.264583,0 1.058333,0 0.79375,0 1.5875,0.79375 1.5875,2.38125 0,1.5875 0,3.96875 0,3.96875 -0.529167,-1.852083 -1.5875,-3.704167 -2.645833,-3.704167 z"
       id="path2066-2"
       inkscape:connector-curvature="0" />
    <path
       style="fill:#b52601;fill-opacity:1;stroke:none;stroke-width:0.26458332px;stroke-linecap:butt;stroke-linejoin:miter;stroke-opacity:1"
       d="m 26.458333,33.998958 3.175,-3.175 c 0,0 2.38125,0 2.645834,0 0.264583,0 0.79375,0.264584 0.79375,0.264584 L 30.1625,33.998958 Z"
       id="path2068-1"
       inkscape:connector-curvature="0" />
    <path
       style="fill:#460c00;fill-opacity:1;stroke:none;stroke-width:0.26458332px;stroke-linecap:butt;stroke-linejoin:miter;stroke-opacity:1"
       d="m 31.485417,34.263542 2.116666,-2.116667 c 0,0 0.529167,1.058333 0.529167,2.38125 0,1.322917 -0.264583,3.175 -0.264583,3.175 0,0 -0.264584,-2.645833 -2.38125,-3.439583 z"
       id="path2070-5"
       inkscape:connector-curvature="0" />
    <path
       style="fill:#635e58;fill-opacity:1;stroke:none;stroke-width:0.26458332px;stroke-linecap:butt;stroke-linejoin:miter;stroke-opacity:1"
       d="m 23.8125,34.263542 h -2.116666 v 2.116666 H 23.8125 Z"
       id="path2092-1"
       inkscape:connector-curvature="0" />
    <path
       style="fill:#460c00;fill-opacity:1;stroke:none;stroke-width:0.26458332px;stroke-linecap:butt;stroke-linejoin:miter;stroke-opacity:1"
       d="m 32.279167,17.065625 5.027083,-5.027083 v 3.175 h -2.116667 v 1.852083 z"
       id="path2094-9"
       inkscape:connector-curvature="0"
       sodipodi:nodetypes="cccccc" />
    <path
       style="fill:#2a2426;fill-opacity:1;stroke:none;stroke-width:0.26458332px;stroke-linecap:butt;stroke-linejoin:miter;stroke-opacity:1"
       d="m 21.695834,16.801042 v 2.116666 h 1.058333 v -2.116666 z"
       id="path2096-1"
       inkscape:connector-curvature="0" />
    <path
       style="fill:#b52601;fill-opacity:1;stroke:none;stroke-width:0.26458332px;stroke-linecap:butt;stroke-linejoin:miter;stroke-opacity:1"
       d="m 29.841073,6.4822916 h -2.58899 v 2.7714069 c 1.690074,0.9916935 3.323013,2.1391075 4.7625,3.5785935 h 4.233333 l 0.79375,-1.058333 h -0.79375 C 35.288802,10.814843 34.342088,9.9384116 33.403645,9.1389771 32.465203,8.339543 31.535026,7.617107 30.608984,6.965983 30.352267,6.7854792 30.09724,6.6519554 29.841073,6.4822916 Z"
       id="path1945"
       inkscape:connector-curvature="0" />
    <path
       style="fill:#b52601;fill-opacity:1;stroke:none;stroke-width:0.26458332px;stroke-linecap:butt;stroke-linejoin:miter;stroke-opacity:1"
       d="M 8.4666666,23.944792 5.0270833,20.505208 v -1.5875 l 1.0583333,0.529167 2.38125,2.38125 z"
       id="path2062"
       inkscape:connector-curvature="0" />
    <path
       style="fill:#635e58;fill-opacity:1;stroke:none;stroke-width:0.26458332px;stroke-linecap:butt;stroke-linejoin:miter;stroke-opacity:1"
       d="m 14.2875,27.384375 v -4.233333 l 4.7625,0.79375 4.7625,-0.79375 v 4.233333 l -3.175,4.7625 h -3.175 z"
       id="path2042"
       inkscape:connector-curvature="0"
       sodipodi:nodetypes="cccccccc" />
    <path
       style="fill:#b52601;fill-opacity:1;stroke:none;stroke-width:0.26458332px;stroke-linecap:butt;stroke-linejoin:miter;stroke-opacity:1"
       d="M 12.964583,19.976042 8.4666666,13.890625 H 4.2333333 l 8.7312497,8.73125 0.264584,-1.322917 z"
       id="path2032"
       inkscape:connector-curvature="0" />
    <path
       style="fill:#898473;fill-opacity:1;stroke:none;stroke-width:0.26458332px;stroke-linecap:butt;stroke-linejoin:miter;stroke-opacity:1"
       d="m 8.4666666,1.4552083 c -0.8772023,1e-7 -1.6655309,0.2098855 -2.3574788,0.548287 L 6.0828327,2.4308594 7.4057493,2.596224 9.8366087,2.3616129 C 11.080065,1.7211855 11.90625,1.4552083 11.90625,1.4552083 Z"
       id="path1959"
       inkscape:connector-curvature="0" />
    <path
       style="fill:#898473;fill-opacity:1;stroke:none;stroke-width:0.26458332px;stroke-linecap:butt;stroke-linejoin:miter;stroke-opacity:1"
       d="m 23.547916,0.39687508 c -11.641665,0 -19.3145827,5.29166652 -22.2249993,11.37708392 L 1.5875,12.038542 3.175,12.303125 8.2020832,8.0697916 20.902083,3.0427083 H 30.95625 L 31.220833,1.984375 31.17484,1.7197917 C 29.553275,0.90454307 27.238436,0.39687508 23.547916,0.39687508 Z"
       id="path1899"
       inkscape:connector-curvature="0"
       sodipodi:nodetypes="sccccccccs" />
    <path
       style="fill:#b52601;fill-opacity:1;stroke:none;stroke-width:0.26458332px;stroke-linecap:butt;stroke-linejoin:miter;stroke-opacity:1"
       d="m 31.17484,1.7197917 h -6.304007 c -1.02526,0 -2.02985,0.037207 -3.017904,0.1173055 -0.988053,0.080099 -1.95957,0.2030884 -2.918684,0.3746541 -0.959115,0.1715658 -1.905827,0.3917073 -2.844271,0.6661092 -0.938444,0.274402 -1.86862,0.603064 -2.794662,0.9916707 C 12.369271,4.258138 11.447363,4.7066893 10.525456,5.22087 9.6035481,5.7350504 8.6816405,6.3148598 7.7555989,6.965983 6.8295572,7.6171062 5.8993814,8.3395425 4.9609374,9.1389771 4.0224934,9.9384114 3.0757812,10.814844 2.1166666,11.773959 H 1.3229167 l 0.7937499,1.058333 H 6.3499999 C 13.229167,5.953125 24.077082,4.6302083 28.310416,4.6302083 c 4.233334,0 6.085417,1.3229167 7.14375,2.1166666 C 34.361895,4.7183728 33.505925,2.8917543 31.17484,1.7197917 Z"
       id="path1904"
       inkscape:connector-curvature="0" />
    <path
       style="fill:#460c00;fill-opacity:1;stroke:none;stroke-width:0.26458332px;stroke-linecap:butt;stroke-linejoin:miter;stroke-opacity:1"
       d="m 10.054167,9.921875 c 0,0 0.79375,0.529167 0.264583,3.439584 0,0 -1.0583333,-1.5875 -2.6458334,-1.852084 0.5291667,-1.852083 2.3812504,-1.5875 2.3812504,-1.5875 z"
       id="path1947"
       inkscape:connector-curvature="0"
       sodipodi:nodetypes="cccc" />
    <path
       style="fill:#460c00;fill-opacity:1;stroke:none;stroke-width:0.26458332px;stroke-linecap:butt;stroke-linejoin:miter;stroke-opacity:1"
       d="m 11.1125,9.128125 c 0,0 1.5875,0.79375 2.38125,2.116667 0,0 0.529167,-1.5875 0,-3.439584 0,0 -1.852083,0 -2.38125,1.322917 z"
       id="path1949"
       inkscape:connector-curvature="0" />
    <path
       style="fill:#460c00;fill-opacity:1;stroke:none;stroke-width:0.26458332px;stroke-linecap:butt;stroke-linejoin:miter;stroke-opacity:1"
       d="m 15.610416,7.011458 c 0,0 0.79375,-1.322916 2.910417,-1.852083 0,0 0.264584,2.38125 -0.264583,4.7625 0,0 -1.058335,-1.852083 -2.645834,-2.910417 z"
       id="path1951"
       inkscape:connector-curvature="0" />
    <path
       style="fill:#460c00;fill-opacity:1;stroke:none;stroke-width:0.26458332px;stroke-linecap:butt;stroke-linejoin:miter;stroke-opacity:1"
       d="m 21.43125,5.159375 c 0,0 1.852083,1.322917 2.38125,3.439583 0,0 1.058333,-1.852083 0.529167,-4.4979163 0,0 -1.058334,-0.2645834 -2.910417,1.0583333 z"
       id="path1953"
       inkscape:connector-curvature="0" />
    <path
       style="fill:#460c00;fill-opacity:1;stroke:none;stroke-width:0.26458332px;stroke-linecap:butt;stroke-linejoin:miter;stroke-opacity:1"
       d="m 26.458333,3.3072917 c 0,0 0.282623,1.9837943 0,4.4979163 0,0 2.116667,-0.79375 3.175,-4.233333 0,0 -1.058334,-0.79375 -3.175,-0.2645833 z"
       id="path1955"
       inkscape:connector-curvature="0" />
    <path
       style="fill:#460c00;fill-opacity:1;stroke:none;stroke-width:0.26458332px;stroke-linecap:butt;stroke-linejoin:miter;stroke-opacity:1"
       d="m 30.95625,7.011458 c 0.264583,-1.5875 0.264583,-3.1749997 0.264583,-3.1749997 0,0 1.058334,1e-7 1.322917,0.7937501 0,0 -0.264583,1.3229166 -1.5875,2.3812496 z"
       id="path1957"
       inkscape:connector-curvature="0" />
    <path
       style="fill:#b52601;fill-opacity:1;stroke:none;stroke-width:0.26458332px;stroke-linecap:butt;stroke-linejoin:miter;stroke-opacity:1"
       d="M 9.8366087,2.3616129 C 9.6728337,2.3104884 9.5367241,2.245099 9.347233,2.2076172 8.9710285,2.1332031 8.5493489,2.0835938 8.1028645,2.0505208 7.4695779,2.0036107 6.7832951,2.0074624 6.1091878,2.0034953 4.0879495,2.9919946 2.9104166,5.102548 2.9104166,6.4822916 3.7041666,5.953125 4.7624999,5.953125 4.7624999,5.953125 6.6805899,4.1720413 8.501246,3.0493761 9.8366087,2.3616129 Z"
       id="path1964"
       inkscape:connector-curvature="0" />
    <path
       style="fill:#460c00;fill-opacity:1;stroke:none;stroke-width:0.26458332px;stroke-linecap:butt;stroke-linejoin:miter;stroke-opacity:1"
       d="m 4.7624999,4.1010417 c 0,0 -0.2645833,1.0583333 -0.2645833,2.3812499 0,0 0.7937501,-1.3229166 1.5875001,-1.8520832 0,0 -2e-7,-0.79375 -1.3229168,-0.5291667 z"
       id="path1966"
       inkscape:connector-curvature="0" />
    <path
       style="fill:#2a2426;fill-opacity:1;stroke:none;stroke-width:0.26458332px;stroke-linecap:butt;stroke-linejoin:miter;stroke-opacity:1"
       d="M 20.6375,16.271875 20.372917,15.742709 20.6375,15.478125 c 0.264584,0 1.058334,-1.058333 1.058334,-2.38125 V 8.5989587 c 0,-0.5291667 0.529166,-1.3229167 1.322916,-1.3229167 h 0.79375 v 1.0583333 h -0.79375 c -0.264583,0 -0.529166,0.2645834 -0.529166,0.5291667 v 3.439583 c 0,1.852084 -0.79375,3.968754 -1.852084,3.96875 z"
       id="path1977"
       inkscape:connector-curvature="0"
       sodipodi:nodetypes="cccsssccsscc" />
    <path
       style="fill:#2a2426;fill-opacity:1;stroke:none;stroke-width:0.26458332px;stroke-linecap:butt;stroke-linejoin:miter;stroke-opacity:1"
       d="M 17.4625,16.271875 17.727083,15.742709 17.4625,15.478125 c -0.264584,0 -1.058334,-1.058333 -1.058334,-2.38125 V 8.5989584 c 0,-0.5291667 -0.529166,-1.3229167 -1.322916,-1.3229167 H 14.2875 V 8.334375 h 0.79375 c 0.264583,0 0.529166,0.2645834 0.529166,0.5291667 v 3.4395833 c 0,1.852084 0.79375,3.968754 1.852084,3.96875 z"
       id="path1977-8"
       inkscape:connector-curvature="0"
       sodipodi:nodetypes="cccsssccsscc" />
    <path
       style="fill:#b52601;fill-opacity:1;stroke:none;stroke-width:0.26458332px;stroke-linecap:butt;stroke-linejoin:miter;stroke-opacity:1"
       d="m 19.05,10.715625 c -0.529167,0 -1.5875,2.116667 -1.5875,3.439583 v 2.645834 h 1.852083 1.322917 v -1.322917 -1.322917 c 0,-1.322916 -1.058333,-3.439583 -1.5875,-3.439583 z"
       id="path1994"
       inkscape:connector-curvature="0"
       sodipodi:nodetypes="sscccccs" />
    <path
       style="fill:#898473;fill-opacity:1;stroke:none;stroke-width:0.26458332px;stroke-linecap:butt;stroke-linejoin:miter;stroke-opacity:1"
       d="m 19.05,16.007291 -1.5875,0.79375 v 3.175 h -4.497917 v 2.645834 l 4.233333,4.7625 1.852084,-3.439584 1.852083,3.439584 4.233333,-4.7625 V 19.976041 H 20.6375 v -3.175 z m -2.38125,5.291667 H 19.05 21.43125 L 19.05,23.680208 Z"
       id="path2012"
       inkscape:connector-curvature="0" />
    <path
       style="fill:#898473;fill-opacity:1;stroke:none;stroke-width:0.26458332px;stroke-linecap:butt;stroke-linejoin:miter;stroke-opacity:1"
       d="m 20.6375,27.648958 h -3.175 l 1.5875,1.5875 z"
       id="path2030"
       inkscape:connector-curvature="0" />
    <path
       style="fill:#898473;fill-opacity:1;stroke:none;stroke-width:0.26458332px;stroke-linecap:butt;stroke-linejoin:miter;stroke-opacity:1"
       d="m 12.964583,27.648958 c 0,2.116667 0.264584,4.233334 1.058333,4.233334 l 10e-7,2.116667 H 12.964583 L 7.9375003,28.971875 c 0,0 2.1166667,-1.322916 3.1749997,-1.322916 1.058333,0 1.852083,-1e-6 1.852083,-1e-6 z"
       id="path2036"
       inkscape:connector-curvature="0" />
    <path
       style="fill:#635e58;fill-opacity:1;stroke:none;stroke-width:0.26458332px;stroke-linecap:butt;stroke-linejoin:miter;stroke-opacity:1"
       d="m 12.964583,26.590625 v -1.5875 l -2.645833,-2.38125 c -1.0583333,0 -2.38125,2.645834 -2.38125,3.96875 z"
       id="path2040"
       inkscape:connector-curvature="0" />
    <path
       style="fill:#898473;fill-opacity:1;stroke:none;stroke-width:0.26458332px;stroke-linecap:butt;stroke-linejoin:miter;stroke-opacity:1"
       d="m 14.2875,27.384375 v 1.5875 c 0,1.058333 1.852083,4.233333 3.704166,4.233333 H 19.05 20.108333 c 1.852083,0 3.704167,-3.175 3.704167,-4.233333 v -1.5875 L 19.05,31.882291 Z"
       id="path2034"
       inkscape:connector-curvature="0" />
    <path
       style="fill:#460c00;fill-opacity:1;stroke:none;stroke-width:0.26458332px;stroke-linecap:butt;stroke-linejoin:miter;stroke-opacity:1"
       d="M 8.4666666,22.357292 5.0270833,18.917708 h 1.0583333 l 2.9104166,2.910417 z"
       id="path2060"
       inkscape:connector-curvature="0" />
    <path
       style="fill:#b52601;fill-opacity:1;stroke:none;stroke-width:0.26458332px;stroke-linecap:butt;stroke-linejoin:miter;stroke-opacity:1"
       d="m 3.4395833,18.917708 v 2.116667 h -2.38125 c 0,-1.058333 0.5291667,-2.116666 1.3229167,-2.116666 0.79375,0 1.0583333,-10e-7 1.0583333,-10e-7 z"
       id="path2064"
       inkscape:connector-curvature="0" />
    <path
       style="fill:#460c00;fill-opacity:1;stroke:none;stroke-width:0.26458332px;stroke-linecap:butt;stroke-linejoin:miter;stroke-opacity:1"
       d="m 3.4395833,22.357292 c 0,0 -0.2645833,0 -1.0583333,0 -0.79375,0 -1.58750001,0.79375 -1.58750001,2.38125 0,1.5875 0,3.96875 0,3.96875 C 1.3229167,26.855209 2.38125,25.003125 3.4395833,25.003125 Z"
       id="path2066"
       inkscape:connector-curvature="0" />
    <path
       style="fill:#b52601;fill-opacity:1;stroke:none;stroke-width:0.26458332px;stroke-linecap:butt;stroke-linejoin:miter;stroke-opacity:1"
       d="m 11.641667,33.998958 -3.1750004,-3.175 c 0,0 -2.38125,0 -2.6458333,0 -0.2645834,0 -0.79375,0.264584 -0.79375,0.264584 l 2.9104166,2.910416 z"
       id="path2068"
       inkscape:connector-curvature="0" />
    <path
       style="fill:#460c00;fill-opacity:1;stroke:none;stroke-width:0.26458332px;stroke-linecap:butt;stroke-linejoin:miter;stroke-opacity:1"
       d="M 6.6145832,34.263542 4.4979166,32.146875 c 0,0 -0.5291666,1.058333 -0.5291666,2.38125 0,1.322917 0.2645833,3.175 0.2645833,3.175 0,0 0.2645833,-2.645833 2.3812499,-3.439583 z"
       id="path2070"
       inkscape:connector-curvature="0" />
    <path
       style="fill:#460c00;fill-opacity:1;stroke:none;stroke-width:0.26458332px;stroke-linecap:butt;stroke-linejoin:miter;stroke-opacity:1"
       d="m 27.78125,8.8635416 c -0.79375,2.1166674 -1.5875,3.7041674 -1.5875,3.7041674 0,0 2.116667,-0.529167 3.704167,-1.852084 0,0 -0.79375,-1.0583335 -2.116667,-1.8520834 z"
       id="path2072"
       inkscape:connector-curvature="0" />
    <path
       style="fill:#898473;fill-opacity:1;stroke:none;stroke-width:0.26458332px;stroke-linecap:butt;stroke-linejoin:miter;stroke-opacity:1"
       d="m 17.4625,34.263542 v 2.116666 c 0,0 0.264583,0.79375 1.5875,0.79375 1.322917,0 1.5875,-0.79375 1.5875,-0.79375 V 34.263542 H 19.05 Z"
       id="path2074"
       inkscape:connector-curvature="0" />
    <path
       style="fill:#635e58;fill-opacity:1;stroke:none;stroke-width:0.26458332px;stroke-linecap:butt;stroke-linejoin:miter;stroke-opacity:1"
       d="m 14.2875,34.263542 h 2.116666 v 2.116666 H 14.2875 Z"
       id="path2092"
       inkscape:connector-curvature="0" />
    <path
       style="fill:#460c00;fill-opacity:1;stroke:none;stroke-width:0.26458332px;stroke-linecap:butt;stroke-linejoin:miter;stroke-opacity:1"
       d="M 5.8208333,17.065625 0.79374999,12.038542 v 3.175 H 2.9104167 v 1.852083 z"
       id="path2094"
       inkscape:connector-curvature="0"
       sodipodi:nodetypes="cccccc" />
    <path
       style="fill:#2a2426;fill-opacity:1;stroke:none;stroke-width:0.26458332px;stroke-linecap:butt;stroke-linejoin:miter;stroke-opacity:1"
       d="m 16.404166,16.801042 v 2.116666 h -1.058333 v -2.116666 z"
       id="path2096"
       inkscape:connector-curvature="0" />
  </g>
</svg>
